<svg id="visual" viewBox="0 0 960 540" width="960" height="540" xmlns="http://www.w3.org/2000/svg" xmlns:xlink="http://www.w3.org/1999/xlink" version="1.1"><rect x="0" y="0" width="960" height="540" fill="#001220"></rect><path d="M0 213L22.8 217.2C45.7 221.3 91.3 229.7 137 212.3C182.7 195 228.3 152 274 141C319.7 130 365.3 151 411.2 161.5C457 172 503 172 548.8 184.8C594.7 197.7 640.3 223.3 686 212.7C731.7 202 777.3 155 823 153C868.7 151 914.3 194 937.2 215.5L960 237L960 541L937.2 541C914.3 541 868.7 541 823 541C777.3 541 731.7 541 686 541C640.3 541 594.7 541 548.8 541C503 541 457 541 411.2 541C365.3 541 319.7 541 274 541C228.3 541 182.7 541 137 541C91.3 541 45.7 541 22.8 541L0 541Z" fill="#f2ebeb"></path><path d="M0 173L22.8 187C45.7 201 91.3 229 137 237C182.7 245 228.3 233 274 236.8C319.7 240.7 365.3 260.3 411.2 274.8C457 289.3 503 298.7 548.8 278.7C594.7 258.7 640.3 209.3 686 193C731.7 176.7 777.3 193.3 823 195.8C868.7 198.3 914.3 186.7 937.2 180.8L960 175L960 541L937.2 541C914.3 541 868.7 541 823 541C777.3 541 731.7 541 686 541C640.3 541 594.7 541 548.8 541C503 541 457 541 411.2 541C365.3 541 319.7 541 274 541C228.3 541 182.7 541 137 541C91.3 541 45.7 541 22.8 541L0 541Z" fill="#dbccd1"></path><path d="M0 286L22.8 275.5C45.7 265 91.3 244 137 236.7C182.7 229.3 228.3 235.7 274 235.8C319.7 236 365.3 230 411.2 242.3C457 254.7 503 285.3 548.8 302.2C594.7 319 640.3 322 686 311.2C731.7 300.3 777.3 275.7 823 268.7C868.7 261.7 914.3 272.3 937.2 277.7L960 283L960 541L937.2 541C914.3 541 868.7 541 823 541C777.3 541 731.7 541 686 541C640.3 541 594.7 541 548.8 541C503 541 457 541 411.2 541C365.3 541 319.7 541 274 541C228.3 541 182.7 541 137 541C91.3 541 45.7 541 22.8 541L0 541Z" fill="#c0b0bc"></path><path d="M0 316L22.8 322.5C45.7 329 91.3 342 137 355.2C182.7 368.3 228.3 381.7 274 383.5C319.7 385.3 365.3 375.7 411.2 363C457 350.3 503 334.7 548.8 339C594.7 343.3 640.3 367.7 686 365.8C731.7 364 777.3 336 823 327.5C868.7 319 914.3 330 937.2 335.5L960 341L960 541L937.2 541C914.3 541 868.7 541 823 541C777.3 541 731.7 541 686 541C640.3 541 594.7 541 548.8 541C503 541 457 541 411.2 541C365.3 541 319.7 541 274 541C228.3 541 182.7 541 137 541C91.3 541 45.7 541 22.8 541L0 541Z" fill="#a095aa"></path><path d="M0 404L22.8 406.7C45.7 409.3 91.3 414.7 137 419.2C182.7 423.7 228.3 427.3 274 418.2C319.7 409 365.3 387 411.2 390C457 393 503 421 548.8 419.7C594.7 418.3 640.3 387.7 686 386.5C731.7 385.3 777.3 413.7 823 423.3C868.7 433 914.3 424 937.2 419.5L960 415L960 541L937.2 541C914.3 541 868.7 541 823 541C777.3 541 731.7 541 686 541C640.3 541 594.7 541 548.8 541C503 541 457 541 411.2 541C365.3 541 319.7 541 274 541C228.3 541 182.7 541 137 541C91.3 541 45.7 541 22.8 541L0 541Z" fill="#797d99"></path><path d="M0 472L22.8 465.2C45.7 458.3 91.3 444.7 137 445C182.7 445.3 228.3 459.7 274 462C319.7 464.3 365.3 454.7 411.2 452C457 449.3 503 453.7 548.8 458.3C594.7 463 640.3 468 686 462.7C731.7 457.3 777.3 441.7 823 438.2C868.7 434.7 914.3 443.3 937.2 447.7L960 452L960 541L937.2 541C914.3 541 868.7 541 823 541C777.3 541 731.7 541 686 541C640.3 541 594.7 541 548.8 541C503 541 457 541 411.2 541C365.3 541 319.7 541 274 541C228.3 541 182.7 541 137 541C91.3 541 45.7 541 22.8 541L0 541Z" fill="#4c6885"></path></svg>