<svg id="visual" viewBox="0 0 960 540" width="960" height="540" xmlns="http://www.w3.org/2000/svg" xmlns:xlink="http://www.w3.org/1999/xlink" version="1.1"><rect x="0" y="0" width="960" height="540" fill="#001220"></rect><path d="M0 350L17.8 345.3C35.7 340.7 71.3 331.3 106.8 311.3C142.3 291.3 177.7 260.7 213.2 257.7C248.7 254.7 284.3 279.3 320 273.8C355.7 268.3 391.3 232.7 426.8 229C462.3 225.3 497.7 253.7 533.2 268C568.7 282.3 604.3 282.7 640 290.3C675.7 298 711.3 313 746.8 307.7C782.3 302.3 817.7 276.7 853.2 271.7C888.7 266.7 924.3 282.3 942.2 290.2L960 298L960 0L942.2 0C924.3 0 888.7 0 853.2 0C817.7 0 782.3 0 746.8 0C711.3 0 675.7 0 640 0C604.3 0 568.7 0 533.2 0C497.7 0 462.3 0 426.8 0C391.3 0 355.7 0 320 0C284.3 0 248.7 0 213.2 0C177.7 0 142.3 0 106.8 0C71.3 0 35.7 0 17.8 0L0 0Z" fill="#4c6885"></path><path d="M0 235L17.8 233.3C35.7 231.7 71.3 228.3 106.8 224.2C142.3 220 177.7 215 213.2 205.7C248.7 196.3 284.3 182.7 320 177.5C355.7 172.3 391.3 175.7 426.8 185.5C462.3 195.3 497.7 211.7 533.2 211.3C568.7 211 604.3 194 640 199C675.7 204 711.3 231 746.8 234.5C782.3 238 817.7 218 853.2 198.7C888.7 179.3 924.3 160.7 942.2 151.3L960 142L960 0L942.2 0C924.3 0 888.7 0 853.2 0C817.7 0 782.3 0 746.8 0C711.3 0 675.7 0 640 0C604.3 0 568.7 0 533.2 0C497.7 0 462.3 0 426.8 0C391.3 0 355.7 0 320 0C284.3 0 248.7 0 213.2 0C177.7 0 142.3 0 106.8 0C71.3 0 35.7 0 17.8 0L0 0Z" fill="#374e66"></path><path d="M0 155L17.8 147C35.7 139 71.3 123 106.8 115.5C142.3 108 177.7 109 213.2 113.8C248.7 118.7 284.3 127.3 320 128.8C355.7 130.3 391.3 124.7 426.8 121.8C462.3 119 497.7 119 533.2 117C568.7 115 604.3 111 640 112.5C675.7 114 711.3 121 746.8 120.3C782.3 119.7 817.7 111.3 853.2 111.8C888.7 112.3 924.3 121.7 942.2 126.3L960 131L960 0L942.2 0C924.3 0 888.7 0 853.2 0C817.7 0 782.3 0 746.8 0C711.3 0 675.7 0 640 0C604.3 0 568.7 0 533.2 0C497.7 0 462.3 0 426.8 0C391.3 0 355.7 0 320 0C284.3 0 248.7 0 213.2 0C177.7 0 142.3 0 106.8 0C71.3 0 35.7 0 17.8 0L0 0Z" fill="#233548"></path></svg>