<svg id="visual" viewBox="0 0 960 540" width="960" height="540" xmlns="http://www.w3.org/2000/svg" xmlns:xlink="http://www.w3.org/1999/xlink" version="1.1"><rect x="0" y="0" width="960" height="540" fill="#001220"></rect><path d="M0 188L17.8 192.7C35.7 197.3 71.3 206.7 106.8 226.7C142.3 246.7 177.7 277.3 213.2 280.3C248.7 283.3 284.3 258.7 320 264.2C355.7 269.7 391.3 305.3 426.8 309C462.3 312.7 497.7 284.3 533.2 270C568.7 255.7 604.3 255.3 640 247.7C675.7 240 711.3 225 746.8 230.3C782.3 235.7 817.7 261.3 853.2 266.3C888.7 271.3 924.3 255.7 942.2 247.8L960 240L960 541L942.2 541C924.3 541 888.7 541 853.2 541C817.7 541 782.3 541 746.8 541C711.3 541 675.7 541 640 541C604.3 541 568.7 541 533.2 541C497.7 541 462.3 541 426.8 541C391.3 541 355.7 541 320 541C284.3 541 248.7 541 213.2 541C177.7 541 142.3 541 106.8 541C71.3 541 35.7 541 17.8 541L0 541Z" fill="#4c6885"></path><path d="M0 303L17.8 304.7C35.7 306.3 71.3 309.7 106.8 313.8C142.3 318 177.7 323 213.2 332.3C248.7 341.7 284.3 355.3 320 360.5C355.7 365.7 391.3 362.3 426.8 352.5C462.3 342.7 497.7 326.3 533.2 326.7C568.7 327 604.3 344 640 339C675.7 334 711.3 307 746.8 303.5C782.3 300 817.7 320 853.2 339.3C888.7 358.7 924.3 377.3 942.2 386.7L960 396L960 541L942.2 541C924.3 541 888.7 541 853.2 541C817.7 541 782.3 541 746.8 541C711.3 541 675.7 541 640 541C604.3 541 568.7 541 533.2 541C497.7 541 462.3 541 426.8 541C391.3 541 355.7 541 320 541C284.3 541 248.7 541 213.2 541C177.7 541 142.3 541 106.8 541C71.3 541 35.7 541 17.8 541L0 541Z" fill="#374e66"></path><path d="M0 383L17.8 391C35.7 399 71.3 415 106.8 422.5C142.3 430 177.7 429 213.2 424.2C248.7 419.3 284.3 410.7 320 409.2C355.7 407.7 391.3 413.3 426.8 416.2C462.3 419 497.7 419 533.2 421C568.7 423 604.3 427 640 425.5C675.7 424 711.3 417 746.8 417.7C782.3 418.3 817.7 426.7 853.2 426.2C888.7 425.7 924.3 416.3 942.2 411.7L960 407L960 541L942.2 541C924.3 541 888.7 541 853.2 541C817.7 541 782.3 541 746.8 541C711.3 541 675.7 541 640 541C604.3 541 568.7 541 533.2 541C497.7 541 462.3 541 426.8 541C391.3 541 355.7 541 320 541C284.3 541 248.7 541 213.2 541C177.7 541 142.3 541 106.8 541C71.3 541 35.7 541 17.8 541L0 541Z" fill="#233548"></path></svg>